<svg width="24" height="24" viewBox="0 0 24 24" fill="none" xmlns="http://www.w3.org/2000/svg">
    <g clip-path="url(#a)">
        <path fill-rule="evenodd" clip-rule="evenodd" d="M5.142 23.14a.86.86 0 0 1-.86.86h-.85A3.448 3.448 0 0 1 0 20.568v-.855a.855.855 0 0 1 1.71 0v.855c0 .942.78 1.711 1.722 1.711h.85a.86.86 0 0 1 .86.86zM3.432 5.997a.855.855 0 0 1 1.71 0v4.287H6.52V5.997a.855.855 0 0 1 1.71 0v4.287h1.367V6.002a.86.86 0 1 1 1.72 0v4.282h1.368V6.002a.86.86 0 1 1 1.72 0v4.282h1.367V5.997a.855.855 0 0 1 1.71 0v4.287h1.377V5.997a.855.855 0 0 1 1.71 0v4.287h.857a.855.855 0 0 1 0 1.71H2.566a.855.855 0 0 1 0-1.71h.866V5.997zm1.71 7.719v4.286a.855.855 0 0 1-1.71 0v-4.286h1.71zm3.088 0v2.565a.855.855 0 0 1-1.71 0v-2.565h1.71zm9.251 0v2.565a.855.855 0 0 1-1.71 0v-2.565h1.71zm3.087 0v4.286a.855.855 0 0 1-1.71 0v-4.286h1.71zm-9.251 0v2.56a.86.86 0 1 1-1.72 0v-2.56h1.72zm3.087 0v2.56a.86.86 0 1 1-1.72 0v-2.56h1.72zM3.432 0h.855a.855.855 0 0 1 0 1.71h-.855c-.942 0-1.721.78-1.721 1.722v.855a.855.855 0 0 1-1.71 0v-.855A3.448 3.448 0 0 1 3.43 0zm15.426.855c0-.472.383-.855.855-.855h.856A3.448 3.448 0 0 1 24 3.432v.85a.86.86 0 1 1-1.72 0v-.85c0-.942-.77-1.721-1.712-1.721h-.855a.855.855 0 0 1-.855-.856zm4.282 18.003a.86.86 0 0 1 .86.86v.85A3.448 3.448 0 0 1 20.568 24h-.85a.86.86 0 1 1 0-1.72h.85c.942 0 1.711-.77 1.711-1.711v-.85a.86.86 0 0 1 .86-.861z" fill="#000"/>
    </g>
    <defs>
        <clipPath id="a">
            <path fill="#fff" d="M0 0h24v24H0z"/>
        </clipPath>
    </defs>
</svg>
