<svg width="26" height="24" fill="none" xmlns="http://www.w3.org/2000/svg">
    <g clip-path="url(#a)">
        <path d="M8.08 23.113c3.963 0 7.175-3.165 7.175-7.07 0-3.903-3.212-7.068-7.175-7.068-3.962 0-7.174 3.165-7.174 7.069s3.212 7.07 7.174 7.07z" fill="#fff"/>
        <path d="m11.574 23.292 2.957-3.241h9.126v3.062l-12.083.179zM14.642 19.538l1.385-2.688h9.278v3.2l-10.663-.512zM15.588 16.493h8.069v-2.81h-8.402l.333 2.81zM15.255 13.287h7.017V10.66H14l1.256 2.626zM10.271 7.207h13.48v3.057H12.813l-2.542-1.497v-1.56zM25.316 3.788H12.118v3.074h13.198V3.788zM22.71.806H9.874V3.65H22.71V.806z" fill="#ACDBED"/>
        <path d="M8.08 20.627a.545.545 0 0 1-.549-.542v-.115a.267.267 0 0 0-.187-.253c-.654-.201-1.186-.68-1.414-1.284a.537.537 0 0 1 .514-.73c.228 0 .433.143.515.35.152.398.596.668 1.104.668.304 0 .578-.098.777-.282a.932.932 0 0 0 .327-.708c0-.587-.806-.99-1.291-1.175-1.73-.673-1.992-1.657-1.992-2.187 0-.576.245-1.117.689-1.514.216-.19.473-.34.771-.443a.267.267 0 0 0 .181-.248v-.155c0-.3.246-.542.55-.542.303 0 .549.242.549.542v.115c0 .115.076.219.187.253.654.202 1.186.68 1.414 1.284a.536.536 0 0 1-.514.731.557.557 0 0 1-.515-.351c-.152-.397-.596-.662-1.104-.662-.304 0-.578.098-.777.276a.954.954 0 0 0-.327.708c0 .587.806.99 1.291 1.175 1.73.673 1.992 1.657 1.992 2.187a2.02 2.02 0 0 1-.689 1.514c-.21.19-.473.34-.771.443a.273.273 0 0 0-.181.248v.155a.548.548 0 0 1-.55.542z" fill="#182766" stroke="#182766" stroke-width=".5" stroke-miterlimit="10"/>
        <path d="M8.08 23.856c-4.376 0-7.934-3.506-7.934-7.818 0-4.312 3.558-7.817 7.934-7.817.485 0 1 .057 1.59.172a.285.285 0 0 0 .222-.052.263.263 0 0 0 .099-.207v-.99c0-.3.245-.541.55-.541h.817a.27.27 0 0 0 .269-.265V4.726a.27.27 0 0 0-.269-.265H9.716a.545.545 0 0 1-.549-.54V.684c0-.3.246-.541.55-.541h13.128c.304 0 .55.242.55.54V3.11a.27.27 0 0 0 .268.264h1.642c.303 0 .549.242.549.541V7.15c0 .3-.245.54-.55.54h-.817a.27.27 0 0 0-.27.266v2.423c0 .3-.244.542-.548.542h-.818a.27.27 0 0 0-.269.264v1.618a.27.27 0 0 0 .269.265h.818c.303 0 .549.242.549.54v2.424a.27.27 0 0 0 .269.265h.818c.303 0 .549.242.549.541v3.236c0 .3-.245.54-.55.54h-.817a.27.27 0 0 0-.27.266v2.423c0 .3-.244.541-.548.541H8.08v.012zm6.556-3.23a.267.267 0 0 0-.21.104c-.018.023-.036.04-.053.063-.023.023-.04.046-.058.07a5.822 5.822 0 0 1-.287.333.407.407 0 0 0-.046.058c-.012.011-.024.029-.036.04l-.105.115a.099.099 0 0 0-.035.035 8.4 8.4 0 0 1-.794.714 1.473 1.473 0 0 1-.181.138.271.271 0 0 0-.1.3.27.27 0 0 0 .257.183h9.857a.27.27 0 0 0 .269-.264v-1.618a.27.27 0 0 0-.27-.265h-8.208v-.006zM8.08 9.31c-3.768 0-6.83 3.016-6.83 6.73 0 3.712 3.062 6.729 6.83 6.729.193 0 .386-.012.626-.029l.292-.034.04-.006c.082-.012.17-.023.258-.04.146-.023.292-.058.432-.093.04-.011.076-.017.117-.028.175-.046.333-.092.49-.15l.042-.017a6.95 6.95 0 0 0 1.857-.996l.018-.012c.012-.011.03-.017.041-.029.105-.08.21-.166.327-.27.041-.04.088-.075.129-.115.105-.098.198-.184.274-.265.053-.052.106-.11.152-.167l.012-.011c.088-.098.17-.19.245-.283a7.13 7.13 0 0 0 .427-.592 7.16 7.16 0 0 0 .286-.478c.024-.046.047-.098.07-.144l.035-.07c.082-.172.152-.333.216-.489.024-.069.053-.132.076-.201a6.15 6.15 0 0 0 .17-.558l.011-.047c.012-.04.024-.074.03-.115a6.937 6.937 0 0 0 .175-1.491c0-.224-.018-.454-.053-.76l-.035-.287a3.492 3.492 0 0 0-.046-.242l-.012-.07a7.277 7.277 0 0 0-.24-.874s-.005-.012-.005-.018c-.076-.213-.176-.414-.27-.61 0 0-.04-.08-.052-.115-.035-.07-.064-.144-.105-.207a6.646 6.646 0 0 0-1.712-2.05l-.012-.011a6.762 6.762 0 0 0-1.957-1.077c-.794-.264-1.577-.408-2.349-.408zm8.034 8.082a.263.263 0 0 0-.263.213 7.667 7.667 0 0 1-.49 1.531l-.012.035a.251.251 0 0 0 .023.247c.053.075.134.121.228.121h8.88a.27.27 0 0 0 .27-.264v-1.618a.27.27 0 0 0-.27-.265h-8.366zm-.006-3.23a.27.27 0 0 0-.21.098.259.259 0 0 0-.053.225l.018.098.017.103c.006.046.018.092.03.144l.035.173c0 .017 0 .035.005.046 0 .029 0 .058.006.092.041.34.059.633.059.904a.27.27 0 0 0 .268.265h6.562a.27.27 0 0 0 .269-.265v-1.618a.27.27 0 0 0-.27-.264h-6.736zm-1.14-1.997c.124.219.252.46.38.754.042.098.14.161.246.161h5.61a.27.27 0 0 0 .268-.264v-1.618a.27.27 0 0 0-.269-.265h-6.567c-.1 0-.193.058-.24.144a.262.262 0 0 0 .024.276c.18.242.356.495.508.76l.04.052zM12.013 9.25c.012.012.03.023.047.035.275.155.532.328.777.5a.276.276 0 0 0 .164.052h9.845a.27.27 0 0 0 .269-.265V7.956a.27.27 0 0 0-.27-.265H11.359a.27.27 0 0 0-.269.265v.679c0 .104.065.202.164.242.018.006.035.017.053.023.023.011.052.029.076.04l.064.029c.198.098.385.184.566.282zM13 4.461a.27.27 0 0 0-.269.265v1.618a.27.27 0 0 0 .269.265h11.48a.27.27 0 0 0 .27-.265V4.726a.27.27 0 0 0-.27-.265H13zm-2.46-3.23a.27.27 0 0 0-.269.266v1.612a.27.27 0 0 0 .27.264h11.48a.27.27 0 0 0 .269-.264V1.497a.27.27 0 0 0-.269-.265h-11.48z" fill="#182766" stroke="#182766" stroke-width=".4" stroke-miterlimit="10"/>
    </g>
    <defs>
        <clipPath id="a">
            <path fill="#fff" d="M0 0h26v24H0z"/>
        </clipPath>
    </defs>
</svg>
