<svg width="14" height="24" fill="none" xmlns="http://www.w3.org/2000/svg">
    <path d="M8.33 4.718a.757.757 0 0 1 .226.585.757.757 0 0 1-.311.547L5.849 7.582l2.473 2.385a.728.728 0 0 1 0 1.058.755.755 0 0 1-.544.225.812.812 0 0 1-.552-.217l-3.111-3a.757.757 0 0 1-.226-.585A.744.744 0 0 1 4.2 6.9l2.396-1.732L2.792 1.5H1.556v8.213C1.556 12.63 3.998 15 7 15s5.445-2.37 5.445-5.287V1.5h-7.46L8.33 4.718z" fill="#ACDBED"/>
    <path d="M13.222 0H.778C.35 0 0 .338 0 .75v8.963c0 3.487 2.73 6.374 6.23 6.742 0 .015-.008.03-.008.045v6H2.333c-.427 0-.777.337-.777.75s.35.75.777.75h9.334c.427 0 .777-.337.777-.75s-.35-.75-.777-.75h-3.89v-6c0-.015-.007-.03-.007-.045C11.27 16.08 14 13.2 14 9.713V.75c0-.412-.35-.75-.778-.75zm-.778 9.713C12.444 12.63 10.002 15 7 15s-5.444-2.37-5.444-5.287V1.5h1.236l3.804 3.668L4.2 6.9a.744.744 0 0 0-.311.547.757.757 0 0 0 .225.586l3.112 3a.812.812 0 0 0 1.104 0 .728.728 0 0 0 0-1.058L5.857 7.59l2.387-1.74a.744.744 0 0 0 .312-.547.757.757 0 0 0-.226-.585L4.986 1.5h7.458v8.213z" fill="#003575"/>
</svg>
