<svg width="24" height="24" fill="none" xmlns="http://www.w3.org/2000/svg">
    <path d="M3 16.355v-9.61c0-.316.285-.84.578-.713l8.16 3.811a.435.435 0 0 1 .262.398v10.323a.43.43 0 0 1-.607.398l-8.16-3.812c-.158-.067-.233-.622-.233-.795z" fill="#fff"/>
    <path d="m12.75 9.7 10.29-4.576v12.004l-10.29 4.479V9.7zM2.505 5.312 7.92 2.903l9.187 4.524-4.8 2.228-9.802-4.343zM8.182 2.738 13.26.473l9.525 4.374-4.808 2.228-9.795-4.337z" fill="#ACDBED"/>
    <path d="M24 5.252c0-.09-.023-.173-.045-.255l-.022-.053c-.038-.075-.075-.15-.136-.21-.007-.008-.015-.015-.022-.015-.037-.038-.067-.068-.112-.098-.03-.022-.06-.03-.09-.045-.008-.007-.015-.015-.023-.015L13.05.06h-.008a.807.807 0 0 0-.232-.052c-.015 0-.037-.008-.053-.008-.037 0-.067.015-.104.023-.06.007-.128.015-.188.037h-.008L7.222 2.303 1.958 4.561c-.007 0-.015.015-.022.015-.03.015-.068.03-.098.045-.037.03-.075.06-.112.098-.008.007-.015.015-.023.015a.63.63 0 0 0-.135.21c-.007.015-.014.038-.022.053a.854.854 0 0 0-.045.247v6.752c0 .413.337.75.75.75s.75-.337.75-.75V6.384l9 3.857v11.508c0 .09.023.18.053.263.007.015.014.037.022.052a.956.956 0 0 0 .135.203.164.164 0 0 0 .037.03c.03.03.06.052.09.075.023.015.053.023.083.038.023.014.045.022.075.037a.78.78 0 0 0 .263.053.755.755 0 0 0 .292-.06l10.5-4.502c.27-.12.45-.39.45-.69V5.252zm-6 1.425L9.405 2.993 12.75 1.56l8.595 3.684L18 6.677zM4.155 5.244 7.5 3.811l8.595 3.684-3.345 1.433-8.595-3.684zM22.5 16.753l-9 3.856V10.24l9-3.856v10.368z" fill="#182766"/>
    <path d="M18.15 16.625a.629.629 0 0 0 .285-.06l2.1-.878a.76.76 0 0 0 .24-.165c.03-.03.053-.075.075-.112.03-.045.06-.075.082-.128a.747.747 0 0 0 .06-.285v-2.25a.752.752 0 0 0-.75-.75.752.752 0 0 0-.75.75v1.748l-1.634.682a.754.754 0 0 0 .292 1.448zM6 16.497H3l1.2-.9a.753.753 0 0 0 .15-1.05.752.752 0 0 0-1.05-.15l-3 2.25c-.015.008-.022.03-.03.038-.03.023-.053.053-.083.082-.007.016-.03.023-.037.03-.008.016-.008.03-.015.038-.015.023-.03.053-.045.075a.52.52 0 0 0-.037.098c-.008.03-.023.06-.03.09-.008.03-.008.06-.008.09 0 .015-.007.03-.007.052 0 .015.007.03.007.053 0 .03 0 .06.007.09.008.03.015.06.03.09.016.037.023.067.038.097a.66.66 0 0 0 .045.075c.007.015.007.03.015.038.008.015.022.015.038.03a.43.43 0 0 0 .082.082c.015.015.022.03.03.038l3 2.25c.135.098.292.15.45.15a.76.76 0 0 0 .6-.3.753.753 0 0 0-.15-1.05L3 17.998h3a2.257 2.257 0 0 1 2.25 2.25A2.257 2.257 0 0 1 6 22.5H.75a.752.752 0 0 0-.75.75c0 .413.338.75.75.75H6a3.752 3.752 0 0 0 0-7.502z" fill="#182766"/>
</svg>
