<svg width="24" height="24" fill="none" xmlns="http://www.w3.org/2000/svg">
    <path d="m23.017 10.358-2.572-.173-3.255-1.312-.495-.188L12 15.66 7.305 8.685l-.495.188-3.255 1.312-2.573.173L.817 23.13l5.805-2.76L12 23.13l5.377-2.76 5.805 2.76-.165-12.772z" fill="#fff"/>
    <path d="M12 15.66 17.378 6l-1.35-3.998L12 .75 7.215 3.188 6.78 7.5 12 15.66z" fill="#ACDBED"/>
    <path d="M12 8.467a2.468 2.468 0 1 0 0-4.935 2.468 2.468 0 0 0 0 4.935z" fill="#fff"/>
    <path d="m23.527 9.803-3.75-1.5a.746.746 0 0 0-.975.42.746.746 0 0 0 .42.975L22.5 11.01v11.025l-4.5-2.25V13.5a.752.752 0 0 0-.75-.75.752.752 0 0 0-.75.75v6.315l-3.75 2.145v-3.21A.752.752 0 0 0 12 18a.752.752 0 0 0-.75.75v3.21L7.5 19.815V13.5a.752.752 0 0 0-.75-.75.752.752 0 0 0-.75.75v6.285l-4.5 2.25V11.01l3.277-1.312a.758.758 0 0 0 .42-.975.756.756 0 0 0-.974-.42l-3.75 1.5A.75.75 0 0 0 0 10.5v12.75a.75.75 0 0 0 .75.75c.113 0 .233-.03.337-.082l5.64-2.82 4.898 2.797a.269.269 0 0 0 .082.03.52.52 0 0 0 .098.038c.068.03.127.037.195.037a.865.865 0 0 0 .195-.022c.037-.008.067-.03.098-.038.03-.015.052-.015.082-.03l4.898-2.797 5.64 2.82c.104.037.224.067.337.067a.75.75 0 0 0 .75-.75V10.5a.75.75 0 0 0-.473-.697z" fill="#182766"/>
    <path d="M12 16.5c.232 0 .45-.105.592-.293C13.148 15.487 18 9.067 18 6c0-3.308-2.693-6-6-6S6 2.692 6 6c0 3.068 4.852 9.488 5.408 10.207.142.188.36.293.592.293zm0-15c2.482 0 4.5 2.018 4.5 4.5 0 1.912-2.85 6.225-4.5 8.498C10.35 12.225 7.5 7.913 7.5 6c0-2.482 2.018-4.5 4.5-4.5z" fill="#182766"/>
    <path d="M15 6a3 3 0 1 0-6 0 3 3 0 1 0 6 0zm-4.5 0c0-.825.675-1.5 1.5-1.5s1.5.675 1.5 1.5-.675 1.5-1.5 1.5-1.5-.675-1.5-1.5z" fill="#182766"/>
</svg>
