<svg width="23" height="26" viewBox="0 0 23 26" fill="none" xmlns="http://www.w3.org/2000/svg">
<path fill-rule="evenodd" clip-rule="evenodd" d="M6.38888 3.5H3.83333C2.42138 3.5 1.27777 4.61875 1.27777 6V22.25C1.27777 23.6313 2.42138 24.75 3.83333 24.75H19.1667C20.5786 24.75 21.7222 23.6313 21.7222 22.25V6C21.7222 4.61875 20.5786 3.5 19.1667 3.5H16.6111" fill="#00A3E0"/>
<path d="M6.38888 3.5H3.83333C2.42138 3.5 1.27777 4.61875 1.27777 6V22.25C1.27777 23.6313 2.42138 24.75 3.83333 24.75H19.1667C20.5786 24.75 21.7222 23.6313 21.7222 22.25V6C21.7222 4.61875 20.5786 3.5 19.1667 3.5H16.6111" stroke="#00A3E0" stroke-width="1.875" stroke-linecap="round" stroke-linejoin="round"/>
<path fill-rule="evenodd" clip-rule="evenodd" d="M6.38892 3.5L8.05003 1.46875C8.2928 1.1725 8.65953 1 9.04797 1H13.9534C14.3418 1 14.7085 1.1725 14.9513 1.46875L16.6111 3.5V4.75C16.6111 5.44 16.0387 6 15.3334 6H7.66669C6.96136 6 6.38892 5.44 6.38892 4.75V3.5H6.38892Z" fill="#F4BF00" stroke="#F4BF00" stroke-width="1.875" stroke-linecap="round" stroke-linejoin="round"/>
<path d="M6.38892 12.25H16.6111" stroke="white" stroke-width="1.875" stroke-linecap="round" stroke-linejoin="round"/>
<path d="M6.38892 18.5H16.6111" stroke="white" stroke-width="1.875" stroke-linecap="round" stroke-linejoin="round"/>
</svg>
