<svg width="24" height="24" viewBox="0 0 24 24" fill="none" xmlns="http://www.w3.org/2000/svg">
    <circle cx="12" cy="12" r="12" fill="#009DD7"/>
    <path d="M18 15.889c0 .295-.115.577-.32.786a1.081 1.081 0 0 1-.77.325H7.09c-.288 0-.566-.117-.77-.325a1.122 1.122 0 0 1-.32-.786V9.778c0-.295.115-.578.32-.786.204-.208.482-.325.77-.325h2.183L10.363 7h3.273l1.091 1.667h2.182c.29 0 .567.117.771.325.205.208.32.491.32.786v6.11z" stroke="#fff" stroke-width="1.5" stroke-linecap="round" stroke-linejoin="round"/>
    <path d="M12 14.778c1.205 0 2.182-.995 2.182-2.222 0-1.228-.977-2.222-2.182-2.222s-2.182.994-2.182 2.222c0 1.227.977 2.222 2.182 2.222z" stroke="#fff" stroke-width="1.5" stroke-linecap="round" stroke-linejoin="round"/>
</svg>
