<svg width="24" height="24" viewBox="0 0 24 24" fill="none" xmlns="http://www.w3.org/2000/svg">
    <rect width="24" height="24" rx="12" fill="#009DD7"/>
    <path d="M19 16.667c0 .353-.134.692-.373.942-.238.25-.562.391-.9.391H6.273c-.338 0-.662-.14-.9-.39A1.366 1.366 0 0 1 5 16.666V9.333c0-.353.134-.692.373-.942.238-.25.562-.391.9-.391h2.545l1.273-2h3.818l1.273 2h2.545c.338 0 .662.14.9.39.239.25.373.59.373.943v7.334z" stroke="#fff" stroke-width="1.5" stroke-linecap="round" stroke-linejoin="round"/>
    <path d="M12 15.333c1.405 0 2.545-1.194 2.545-2.666C14.545 11.194 13.405 10 12 10c-1.406 0-2.546 1.194-2.546 2.667 0 1.472 1.14 2.666 2.546 2.666z" stroke="#fff" stroke-width="1.5" stroke-linecap="round" stroke-linejoin="round"/>
</svg>
