<svg width="24" height="24" fill="none" xmlns="http://www.w3.org/2000/svg">
    <path d="M12 4.47c-1.92 0-4.215.885-4.215 5.092 0 4.178 2.535 6.953 4.215 6.953 1.68 0 4.215-2.775 4.215-6.953 0-4.207-2.295-5.092-4.215-5.092z" fill="#fff"/>
    <path d="m18.69 19.628-2.865-1.898c-.442.825-1.995 1.62-3.855 1.62-1.838 0-3.367-.78-3.832-1.583L5.82 19.38l-3.592.75L.51 23.348h22.155v-2.723l-3.975-.997z" fill="#ACDBED"/>
    <path d="M23.985 23.19c0-.023.008-.045 0-.06-.442-2.595-1.672-4.14-3.285-4.14h-.285c-1.328 0-2.302.015-3.307-1.417a.747.747 0 0 0-1.043-.18.747.747 0 0 0-.18 1.042c1.455 2.07 3.165 2.07 4.545 2.055h.27c.72 0 1.275.923 1.598 2.018H1.694c.315-1.095.863-2.018 1.56-2.018h.27c1.403.015 3.158.023 4.59-2.055a.754.754 0 0 0-.188-1.043.746.746 0 0 0-1.042.188c-.99 1.425-2.04 1.418-3.352 1.41h-.278c-1.59 0-2.805 1.545-3.248 4.14v.06c0 .022-.007.037-.007.06 0 .03.015.052.015.082.007.053.015.098.03.15.015.046.038.09.06.128a.429.429 0 0 0 .083.12c.03.037.067.067.104.098.038.03.076.052.12.075a.8.8 0 0 0 .143.052c.03.008.052.03.082.03.03.015.076.015.113.015h22.5c.038 0 .082 0 .128-.008.03-.007.052-.022.075-.03a.588.588 0 0 0 .255-.127.648.648 0 0 0 .105-.098c.03-.037.052-.074.075-.112.022-.045.044-.082.06-.128.014-.044.022-.097.03-.142 0-.03.014-.053.014-.082.008-.046 0-.068-.007-.083z" fill="#182766"/>
    <path d="M7.005 8.272h-2.67L3.63 9.87V12l1.575.727h2.227l-.427-4.455zM16.942 8.272h2.678l.697 1.598V12l-1.567.727h-2.227l.42-4.455z" fill="#ACDBED"/>
    <path d="M19.47 7.628c.015-.046.03-.083.03-.128C19.5 2.595 16.905 0 12 0 7.095 0 4.5 2.595 4.5 7.5c0 .045.015.09.03.128C3.645 7.935 3 8.768 3 9.75v1.5a2.257 2.257 0 0 0 2.25 2.25h1.5c.12 0 .232-.037.338-.09C8.13 16.163 10.17 18 12 18c.322 0 .66-.052.99-.157a.755.755 0 0 0 .487-.945.755.755 0 0 0-.944-.488c-.188.06-.368.09-.533.09-1.658 0-4.125-2.925-4.125-6.967C7.875 6.195 9.262 4.5 12 4.5c1.41 0 2.467.457 3.158 1.357.247.33.72.39 1.05.143.33-.247.39-.72.142-1.05C15.375 3.675 13.875 3 12 3 9.06 3 7.155 4.612 6.57 7.5H6c0-4.095 1.905-6 6-6s6 1.905 6 6h-1.155c-.045 0-.09-.008-.135 0a.749.749 0 0 0-.652.832c.044.375.067.78.067 1.2 0 1.02-.158 2.025-.473 2.978a.748.748 0 0 0 .713.982c.03 0 .06-.007.09-.015.023 0 .045.015.068.015H18c0 .413-.337.75-.75.75h-3v-.75a.752.752 0 0 0-.75-.75.752.752 0 0 0-.75.75v1.5c0 .413.338.75.75.75h3.75a2.257 2.257 0 0 0 2.25-2.25v-.135a2.243 2.243 0 0 0 1.5-2.114v-1.5c0-.976-.645-1.808-1.53-2.115zM6.39 9c-.007.18-.015.352-.015.533 0 .862.105 1.687.277 2.467H5.25a.752.752 0 0 1-.75-.75v-1.5c0-.412.338-.75.75-.75h1.14zm13.11 2.25c0 .412-.337.75-.75.75h-1.41a10.828 10.828 0 0 0 .27-3h1.14c.413 0 .75.338.75.75v1.5z" fill="#182766"/>
</svg>
