<svg width="24" height="24" fill="none" xmlns="http://www.w3.org/2000/svg">
    <path d="M22.5 13.5c.828-5.8-3.201-11.172-9-12C7.7.67 2.328 4.7 1.5 10.5c-.828 5.8 3.201 11.172 9 12 5.8.828 11.172-3.201 12-9z" fill="#ACDBED"/>
    <path d="m11.815 8.533-.336-2.651-1.852-1.347-2.02 1.368L6.408 8.09l2.703 6.712 4.198 4.292 2.946-.61 1.473-1.494-.695-1.956-2.125-1.347-1.514.736-1.158-.483-1.862-4.093.979-.957.462-.358z" fill="#fff"/>
    <path d="M12.05 22.782a10.945 10.945 0 0 1-7.055-2.535l-.015-.012a11.475 11.475 0 0 1-.63-.572 8.482 8.482 0 0 0-.083-.078c-.036-.034-.073-.068-.108-.104l-.077-.073c-.024-.022-.048-.043-.07-.066a5.998 5.998 0 0 1-.252-.289c-.042-.05-.084-.102-.128-.151a8.38 8.38 0 0 0-.074-.085c-.043-.05-.086-.098-.127-.148a11.328 11.328 0 0 1-.483-.645l-.055-.079c-.033-.046-.066-.092-.098-.14a11.104 11.104 0 0 1-.435-.715l-.038-.066a10.848 10.848 0 0 1-.444-.899l-.01-.025c-.031-.07-.062-.138-.09-.208a10.57 10.57 0 0 1-.278-.756 9.332 9.332 0 0 1-.28-1.018 10.623 10.623 0 0 1-.183-1.054 11.16 11.16 0 0 1-.082-1.098c0-.048-.004-.095-.008-.142-.003-.05-.007-.1-.007-.15 0-.044.003-.086.006-.129.003-.043.006-.086.007-.13v-.135a1.889 1.889 0 0 1 0-.138 2.28 2.28 0 0 1 .015-.168c.006-.048.012-.097.015-.146a10.233 10.233 0 0 1 .125-1.01c.043-.25.086-.472.136-.682.016-.067.035-.135.053-.204a11.083 11.083 0 0 1 3.38-5.546 11.025 11.025 0 0 1 5.942-2.72c.035-.004.07-.01.105-.016.037-.006.073-.012.11-.016.125-.014.253-.02.387-.027l.153-.009c.061-.004.122-.008.182-.014.108-.008.211-.017.314-.02l.045.001.06.002c.02 0 .035-.002.052-.003a1.188 1.188 0 0 1 .108.003l.102.005c.23.005.463.016.69.035l.077.007c.108.008.216.016.323.029.277.032.554.075.822.126.114.022.226.048.339.075l.06.014c.195.044.392.095.587.151l.09.026a11.228 11.228 0 0 1 1.163.415l.05.022c.28.12.564.257.847.408l.091.049.098.051.053.028c.017.02.037.036.06.05 3.436 1.987 5.571 5.672 5.571 9.616a11.028 11.028 0 0 1-1.282 5.184.475.475 0 1 1-.842-.445 10.084 10.084 0 0 0 1.172-4.74c0-3.706-2.026-7.12-5.288-8.91l-.079-.042c-.27-.144-.542-.276-.81-.39l-.039-.018a10.084 10.084 0 0 0-.958-.346l-.052-.015a10.326 10.326 0 0 0-.798-.206l-.13-.03a10.046 10.046 0 0 0-.924-.14l-.081-.008-.049-.004a10.34 10.34 0 0 0-.903-.044l-.086-.001h-.02c-.143 0-.284.01-.419.02l-.13.007-.141.008c-.119.006-.241.012-.364.025-.039.004-.078.011-.117.018-.024.004-.05.009-.073.011-4.05.544-7.475 3.576-8.524 7.545l-.017.066c-.012.045-.025.09-.035.136-.051.212-.09.43-.123.616-.025.143-.05.293-.068.444a10.024 10.024 0 0 0 .002 2.53 10.402 10.402 0 0 0 .167.963c.055.242.11.456.169.653.027.093.057.185.087.277a10.135 10.135 0 0 0 .325.859l.02.046a10.014 10.014 0 0 0 .408.824l.033.059c.136.242.266.456.397.654.032.047.065.095.099.142l.043.06c.161.23.3.416.438.585.041.05.085.1.127.15l.064.072c.145.169.304.349.474.521.038.038.077.075.116.111.024.022.048.043.07.065a10.402 10.402 0 0 0 .603.543l.018.014a10.17 10.17 0 0 0 6.41 2.287c1.702 0 4.274 0 5.301-1.275.21-.261.092-.645.026-.755a.229.229 0 0 0-.035-.044l-.808-.804a.232.232 0 0 0-.263-.046c-1.385.65-2.878.688-2.94.69h-.01a.477.477 0 0 1-.29-.1c-2.194-1.684-3.93-4.172-4.41-4.895-.003-.005-.006-.01-.01-.013l-.017-.024-.105-.165a.416.416 0 0 1-.027-.051c-.446-.747-1.95-3.397-2.548-6.118a.48.48 0 0 1 .02-.268c.054-.146 1.372-3.607 3.87-3.853a.472.472 0 0 1 .209.026 2.8 2.8 0 0 1 .417.205c.644.375 1.186 1.031 1.486 1.8.179.456.377 1.15.31 1.853-.014.153-.053.613-.408.922a3.177 3.177 0 0 1-.373.267l-.643.426a.232.232 0 0 0-.103.215c.025.283.198.965 1.066 2.35.862 1.353 1.383 1.793 1.618 1.936a.235.235 0 0 0 .25-.005l.629-.421c.143-.098.27-.183.39-.24.145-.072.304-.108.474-.108.239 0 .437.069.532.103.658.227 1.196.698 1.53 1.053.56.594.922 1.364.992 2.115.018.196.022.352.012.477a.485.485 0 0 1-.058.19 3.385 3.385 0 0 1-.712.88.233.233 0 0 0-.008.337l.644.644c.321.321.616 1.298.034 2.02-1.313 1.628-4.158 1.628-6.04 1.628zm-2.715-8.825a.232.232 0 0 0 .03.048l.026.037c.309.466 1.957 2.885 4.008 4.535a.235.235 0 0 0 .147.051h.02c.81-.07 2.789-.367 3.638-1.657a.235.235 0 0 0 .037-.143 3.886 3.886 0 0 0-.012-.136c-.049-.533-.324-1.112-.735-1.547-.368-.391-.776-.677-1.148-.806l-.003-.002a.654.654 0 0 0-.216-.049.24.24 0 0 0-.152.055l.001-.002a3.51 3.51 0 0 1-.175.126l-.786.525a.792.792 0 0 1-.574.14c-.674-.082-1.486-.883-2.484-2.45-.985-1.575-1.366-2.66-1.164-3.314a.778.778 0 0 1 .336-.458l.798-.527.047-.03c.072-.047.14-.09.204-.144.076-.058.08-.115.096-.303.039-.403-.05-.908-.248-1.42-.22-.562-.621-1.056-1.075-1.32a3.838 3.838 0 0 0-.096-.054.231.231 0 0 0-.158-.024c-1.624.335-2.68 2.735-2.795 3.008a.235.235 0 0 0-.012.144c.605 2.54 2 4.977 2.412 5.664l.016.027a.179.179 0 0 1 .017.027z" fill="#182766" stroke="#182766" stroke-width=".5" stroke-miterlimit="10"/>
</svg>
