<svg width="24" height="24" fill="none" xmlns="http://www.w3.org/2000/svg">
    <g clip-path="url(#a)">
        <path d="M15.78 3.576H.848v16.52H15.78V3.575z" fill="#fff"/>
        <path d="M15.279 23.159H1.569l-.722-.702.345-1.812h14.087v2.514zM15.543.97H.938v2.606h14.605V.97zM6.601 3.916v10.36h3.954v3.576l4.724-3.533h7.907V3.916H6.6z" fill="#ACDBED"/>
        <path d="M23.358 3.166h-6.817a.25.25 0 0 1-.248-.248v-.475c0-1.273-1.079-2.308-2.4-2.308H2.535c-1.327 0-2.4 1.035-2.4 2.308v19.12c0 1.272 1.078 2.308 2.4 2.308h11.358c1.327 0 2.4-1.036 2.4-2.309v-5.015a.506.506 0 1 0-1.014 0v3.025a.25.25 0 0 1-.248.248H1.402a.251.251 0 0 1-.248-.248V4.428a.25.25 0 0 1 .248-.248h3.026a.506.506 0 1 0 0-1.014H1.402a.25.25 0 0 1-.248-.248v-.475c0-.712.62-1.289 1.386-1.289h11.358c.766 0 1.386.577 1.386 1.29v.468a.25.25 0 0 1-.248.248H6.698a.506.506 0 0 0-.507.507v10.598c0 .28.227.507.507.507H9.73a.25.25 0 0 1 .248.248v3.026a.506.506 0 0 0 .831.388l4.33-3.608a.246.246 0 0 1 .157-.06h8.052c.28 0 .507-.226.507-.506V3.673a.49.49 0 0 0-.496-.507zM1.402 20.834h13.629a.25.25 0 0 1 .248.248v.475c0 .712-.62 1.289-1.386 1.289H2.535c-.76 0-1.386-.577-1.386-1.29v-.468a.257.257 0 0 1 .253-.254zm21.444-7.319a.25.25 0 0 1-.248.248h-7.572a.498.498 0 0 0-.324.12l-3.3 2.75a.246.246 0 0 1-.157.06.257.257 0 0 1-.108-.023.257.257 0 0 1-.146-.226v-2.168a.506.506 0 0 0-.507-.507h-3.03a.25.25 0 0 1-.249-.248V4.428a.25.25 0 0 1 .248-.248h15.145c.135 0 .248.113.248.248v9.087z" fill="#182766" stroke="#182766" stroke-width=".5" stroke-miterlimit="10"/>
        <path d="M18.811 6.947h-7.566a.506.506 0 1 0 0 1.013h7.572c.28 0 .507-.226.507-.506a.515.515 0 0 0-.513-.507zM18.811 9.978h-7.566a.506.506 0 1 0 0 1.014h7.572a.506.506 0 1 0-.006-1.014z" fill="#182766" stroke="#182766" stroke-width=".5" stroke-miterlimit="10"/>
    </g>
    <defs>
        <clipPath id="a">
            <path fill="#fff" d="M0 0h24v24H0z"/>
        </clipPath>
    </defs>
</svg>
