<svg width="28" height="28" viewBox="0 0 28 28" fill="none" xmlns="http://www.w3.org/2000/svg">
<rect x="19" y="5" width="6" height="4" rx="2" fill="#F4BF00"/>
<rect x="19" y="10" width="6" height="4" rx="2" fill="#F4BF00"/>
<rect x="19" y="15" width="6" height="4" rx="2" fill="#F4BF00"/>
<path fill-rule="evenodd" clip-rule="evenodd" d="M18.6667 3.5H5.83333C4.54417 3.5 3.5 4.54417 3.5 5.83333V22.1667C3.5 23.4558 4.54417 24.5 5.83333 24.5H18.6667C19.9558 24.5 21 23.4558 21 22.1667V5.83333C21 4.54417 19.9558 3.5 18.6667 3.5Z" fill="#00A3E0"/>
<path d="M18.6667 3.5H5.83333C4.54417 3.5 3.5 4.54417 3.5 5.83333V22.1667C3.5 23.4558 4.54417 24.5 5.83333 24.5H18.6667C19.9558 24.5 21 23.4558 21 22.1667V5.83333C21 4.54417 19.9558 3.5 18.6667 3.5" stroke="#00A3E0" stroke-width="1.75" stroke-linecap="round" stroke-linejoin="round"/>
<path d="M7.49998 5.5V22.5" stroke="white" stroke-width="1.75" stroke-linecap="round" stroke-linejoin="round"/>
</svg>
