<svg width="28" height="27" viewBox="0 0 28 27" fill="none" xmlns="http://www.w3.org/2000/svg">
<rect x="0.5" y="0.5" width="24" height="24" rx="9" fill="#00A3E0"/>
<path fill-rule="evenodd" clip-rule="evenodd" d="M20.123 25.0893L26.1662 18.9653C27.278 17.8387 27.278 16.012 26.1662 14.884C25.0544 13.7573 23.2518 13.7573 22.1387 14.884L16.0863 21.0173C15.885 21.2213 15.7547 21.4853 15.7139 21.772L15.1179 26L19.3533 25.4707C19.6441 25.4333 19.9151 25.3 20.123 25.0893Z" fill="#F4BF00" stroke="#F4BF00" stroke-width="2" stroke-linecap="round" stroke-linejoin="round"/>
<path d="M9.75626 8.74399V10.0933" stroke="white" stroke-width="2.02333" stroke-linecap="round" stroke-linejoin="round"/>
<path d="M15.0811 8.74399V10.0933" stroke="white" stroke-width="2.02333" stroke-linecap="round" stroke-linejoin="round"/>
<path d="M13.7495 16.6987C13.3377 16.78 12.8996 16.8373 12.418 16.8373C9.50496 16.8373 7.75897 15.068 7.75897 15.068" stroke="white" stroke-width="2.02333" stroke-linecap="round" stroke-linejoin="round"/>
</svg>
