<svg width="18" height="18" fill="none" xmlns="http://www.w3.org/2000/svg">
    <path d="M15.158 6.615 10.5 2.085a2.122 2.122 0 0 0-2.925 0l-4.658 4.5a1.95 1.95 0 0 0-.667 1.447v6.435A2.063 2.063 0 0 0 4.335 16.5h9.33a2.062 2.062 0 0 0 2.085-2.033V8.032a2.002 2.002 0 0 0-.592-1.417zM8.58 3.165a.622.622 0 0 1 .84 0l4.08 3.96-4.102 3.96a.622.622 0 0 1-.84 0L4.5 7.125l4.08-3.96zm5.67 11.303a.57.57 0 0 1-.585.532h-9.33a.57.57 0 0 1-.585-.533V8.512l3.037 2.925-1.244 1.2a.75.75 0 0 0 0 1.058.751.751 0 0 0 .54.232.75.75 0 0 0 .517-.21l1.328-1.274a2.1 2.1 0 0 0 2.19 0l1.327 1.274a.75.75 0 0 0 .811.15.751.751 0 0 0 .246-.172.75.75 0 0 0 0-1.058l-1.252-1.2 3-2.925v5.955z" fill="#ADB5C0"/>
</svg>
