<svg width="129" height="36" fill="none" xmlns="http://www.w3.org/2000/svg">
    <path d="M20.05 35H.7V1h6.9v27.9h12.45V35zm10.991-8c1 1.733 2.85 2.6 5.55 2.6 2.7 0 4.533-.867 5.5-2.6 1-1.767 1.5-4.7 1.5-8.8 0-4.133-.5-7.133-1.5-9s-2.833-2.8-5.5-2.8-4.5.933-5.5 2.8c-1 1.867-1.5 4.867-1.5 9 0 4.1.483 7.033 1.45 8.8zm16.45 4.4c-2.1 2.8-5.733 4.2-10.9 4.2-5.167 0-8.817-1.4-10.95-4.2-2.1-2.833-3.15-7.25-3.15-13.25s1.05-10.45 3.15-13.35C27.774 1.867 31.424.4 36.591.4c5.167 0 8.8 1.467 10.9 4.4 2.133 2.9 3.2 7.35 3.2 13.35s-1.067 10.417-3.2 13.25zm23.267-8.6v-6h9.9v17.65c-4.767.767-8.633 1.15-11.6 1.15-5.3 0-8.95-1.417-10.95-4.25-1.966-2.833-2.95-7.333-2.95-13.5s1.033-10.617 3.1-13.35C60.325 1.767 63.842.4 68.808.4c3.1 0 6.45.35 10.05 1.05l1.8.35-.2 5.35c-4-.433-7.283-.65-9.85-.65-2.533 0-4.317.3-5.35.9-1.033.6-1.8 1.717-2.3 3.35-.466 1.6-.7 4.367-.7 8.3 0 3.9.483 6.633 1.45 8.2.967 1.567 2.967 2.35 6 2.35l4.15-.2v-6.6h-3.1zM87.175 35V1h6.9v34h-6.9zm14.306 0V1h11.65l8.2 28h.5V1h6.9v34h-11.35l-8.5-28h-.5v28h-6.9z" fill="#00A3E0"/>
</svg>
