<svg width="95" height="19" fill="none" xmlns="http://www.w3.org/2000/svg">
    <path fill-rule="evenodd" clip-rule="evenodd" d="M9.177 16.358A7.072 7.072 0 0 1 3.83 13.91c.107.003.214.008.325.006 1.37-.033 2.395-.515 3.079-1.445.422-.573.635-1.457.647-2.64h2.572v2.94h2.03v-4.34c.01-.85.133-1.433.374-1.747.321-.429.796-.644 1.424-.644.659-.007 1.153.207 1.483.644.124.17.279.709.279.709.153.584.243 1.194.243 1.826 0 3.944-3.182 7.139-7.108 7.139zm0-14.279c2.059 0 3.906.884 5.204 2.288-.066-.002-.13-.005-.199-.003-1.367.032-2.393.513-3.078 1.443-.404.55-.61 1.391-.64 2.5H7.885v-2.8h-2.03v4.34c-.008.85-.132 1.434-.374 1.748-.32.429-.796.643-1.423.643-.66.009-1.153-.207-1.483-.643-.124-.17-.296-.682-.296-.682a7.164 7.164 0 0 1-.21-1.693c0-3.945 3.183-7.14 7.108-7.14zm0-2.079C4.11 0 0 4.127 0 9.22c0 5.09 4.109 9.219 9.177 9.219 5.069 0 9.178-4.129 9.178-9.22C18.355 4.128 14.245 0 9.177 0z" fill="#03A1DF"/>
    <path fill-rule="evenodd" clip-rule="evenodd" d="M95 16.282h-3.047c-.007-.155-.018-.28-.018-.404-.001-1.914-.008-3.828.006-5.742.002-.311-.083-.423-.398-.398-.33.025-.665.006-1.032.006v6.503h-3.058V2.463c.787-.106 1.559-.093 2.28.27.643.322.75.944.76 1.574.02 1.167.013 2.336 0 3.503-.002.263.062.375.34.35.259-.021.521-.02.779 0 .265.022.328-.087.327-.335-.01-1.654-.005-3.309-.005-4.963V2.48c.654-.135 1.276-.068 1.898.083.703.17.997.692 1.168 1.326v12.393zM81.515 13.103c.59 0 1.14-.017 1.69.007.293.013.363-.085.36-.366-.012-1.48-.005-2.962-.006-4.442 0-.106-.01-.21-.016-.32h-2.028v5.121zm-3.067-10.64c.737-.103 1.421-.07 2.085.17.687.248.924.812.954 1.479.027.615.009 1.232.01 1.849v.391c.659 0 1.282.008 1.905-.012.056-.002.15-.183.15-.282.012-1.038.008-2.077.008-3.115v-.482c.843-.093 1.645-.102 2.38.327.542.316.666.876.669 1.433.016 3.428.007 6.857.006 10.285 0 .03-.014.06-.03.131H80.4c-.129 0-.26-.004-.388-.02-1.073-.132-1.431-.5-1.497-1.583a34.67 34.67 0 0 1-.065-2.008c-.007-2.714-.003-5.429-.003-8.143v-.42zM47.009 4.45c.047 1.36.512 2.497 1.427 3.446.9.934 2.036 1.434 3.325 1.767-.352.5-.678.973-1.021 1.435-.034.046-.18.042-.259.015-1.257-.434-2.494-.915-3.64-1.6-.569-.339-1.121-.702-1.395-1.4-.327.778-.954 1.2-1.623 1.52-1.108.53-2.25.986-3.386 1.458-.094.04-.293.007-.348-.065-.327-.428-.626-.877-.96-1.357 1.796-.477 3.322-1.298 4.201-3.002.371-.719.581-1.638.503-2.213h-3.788V2.877h10.789c0 .477.01.95-.013 1.421-.003.055-.185.145-.285.146-1.038.01-2.077.006-3.115.006h-.412zM67.934 10.22V2.46c.817-.098 1.609-.097 2.339.307.56.31.664.875.697 1.45.022.375.004.753.004 1.15h1.825V2.466c.824-.106 1.602-.093 2.333.272.471.235.656.676.708 1.168.034.331.024.667.025 1 .002 1.633 0 3.266 0 4.899v.41h-3.047V7.02h-1.832v3.2h-3.052zM62.474 7.141v1.774c1.556-.002 3.096.075 4.65-.37 0 .424.015.84-.013 1.252-.005.072-.184.177-.291.19-.847.097-1.694.212-2.544.25-.937.04-1.878.01-2.817 0a3.606 3.606 0 0 1-.707-.083c-.963-.206-1.375-.764-1.38-1.859-.004-.81 0-1.621 0-2.432V2.666h7.3v1.551h-4.189v1.307h4.198v1.617h-4.207zM26.593 9.743c.176-.017.48-.03.776-.082.644-.116 1.259-.315 1.75-.777.528-.496.557-1.126.04-1.617a2.858 2.858 0 0 0-.8-.533c-.927-.406-1.899-.473-2.888-.281-.633.122-1.235.323-1.704.795-.504.507-.506 1.095-.001 1.597.136.136.294.257.46.354.692.402 1.453.529 2.367.544zm.279 1.162c-1.98-.06-3.508-.241-4.908-.984a4.214 4.214 0 0 1-.919-.653c-.832-.79-.795-1.772.07-2.525.797-.694 1.76-1.04 2.772-1.252 2.202-.463 4.382-.405 6.495.423.503.197.99.494 1.408.837.902.739.918 1.704.091 2.516-.735.723-1.668 1.08-2.645 1.283-.915.191-1.852.281-2.364.355zM72.808 12.825H60.11v-1.603h.412c4.119 0 8.238-.003 12.357.003.537.001 1.082 0 1.612.081.865.133 1.325.644 1.353 1.52.037 1.155.015 2.312.017 3.468 0 .041-.018.082-.032.14h-3.02v-3.609zM34.318 2.46c.726-.1 1.422-.07 2.092.186.746.286.916.93.934 1.63.02.83.005 1.662.005 2.531h1.804V8.41H37.36v4.364h-3.041V2.46zM41.207 11.947h3.023v2.687h12.096v1.575c-.131.008-.267.022-.402.022-3.883.001-7.767.004-11.65-.003-.57 0-1.149.005-1.709-.084-.859-.137-1.283-.565-1.343-1.42-.065-.911-.015-1.83-.015-2.777zM56.044 12.78h-3.026V2.461c.765-.102 1.512-.082 2.22.244.586.269.752.804.8 1.386.026.3.006.605.006.907v7.783zM22.426 11.952h3.039v2.69h11.688v1.59h-.422c-3.763 0-7.526.004-11.288-.003-.57-.001-1.148.002-1.707-.092-.844-.142-1.266-.633-1.302-1.49-.037-.884-.008-1.77-.008-2.695z" fill="#434188"/>
    <path fill-rule="evenodd" clip-rule="evenodd" d="M20.75 3.522h4.183V2.49h3.035v1.014c.151.007.265.017.379.017 1.179 0 2.358.008 3.537-.005.257-.003.34.074.328.33-.02.408-.005.818-.005 1.25H20.75V3.523z" fill="#434188"/>
</svg>
