<svg width="237" height="46" fill="none" xmlns="http://www.w3.org/2000/svg">
    <path fill-rule="evenodd" clip-rule="evenodd" d="M22.895 40.808c-5.326 0-10.093-2.371-13.344-6.107.267.008.535.02.813.015 3.415-.082 5.975-1.284 7.68-3.605 1.052-1.43 1.584-3.633 1.614-6.588h6.417v7.339h5.064V21.03c.023-2.12.331-3.572.933-4.357.802-1.069 1.987-1.605 3.552-1.605 1.645-.02 2.877.514 3.7 1.605.31.426.696 1.768.696 1.768.383 1.459.607 2.98.607 4.558 0 9.837-7.938 17.808-17.732 17.808zm0-35.62c5.135 0 9.744 2.204 12.982 5.706-.165-.004-.327-.012-.496-.008-3.412.081-5.971 1.28-7.68 3.602-1.007 1.37-1.523 3.47-1.596 6.234h-6.433v-6.984h-5.065v10.83c-.02 2.12-.33 3.576-.932 4.358-.802 1.07-1.987 1.603-3.552 1.603-1.644.024-2.875-.514-3.7-1.603-.31-.425-.737-1.7-.737-1.7A17.873 17.873 0 0 1 5.162 23c0-9.841 7.941-17.813 17.733-17.813zm0-5.188C10.251 0 0 10.296 0 23c0 12.7 10.25 23 22.895 23s22.896-10.3 22.896-23c0-12.704-10.251-23-22.896-23z" fill="#03A1DF"/>
    <path fill-rule="evenodd" clip-rule="evenodd" d="M237 40.62h-7.601c-.019-.387-.046-.698-.046-1.01-.003-4.774-.019-9.55.015-14.323.006-.777-.206-1.054-.992-.994-.826.064-1.66.015-2.575.015v16.224h-7.628V6.144c1.964-.264 3.887-.23 5.686.673 1.604.805 1.872 2.355 1.897 3.927.048 2.913.032 5.827.001 8.74-.007.655.155.934.85.875a11.845 11.845 0 0 1 1.941 0c.661.053.818-.22.814-.838-.022-4.127-.011-8.254-.012-12.381v-.952c1.633-.337 3.185-.17 4.737.205 1.753.424 2.485 1.728 2.913 3.308v30.92zM203.357 32.69c1.472 0 2.847-.043 4.217.016.73.032.907-.212.901-.912-.032-3.694-.015-7.389-.017-11.083-.001-.263-.026-.525-.04-.797h-5.061v12.775zm-7.651-26.544c1.838-.259 3.546-.175 5.201.422 1.715.62 2.307 2.025 2.38 3.69.068 1.535.023 3.074.027 4.612v.978c1.642 0 3.198.018 4.752-.032.139-.005.374-.457.376-.703.028-2.59.017-5.18.017-7.77l.001-1.204c2.104-.232 4.104-.254 5.938.816 1.352.79 1.662 2.187 1.668 3.576.039 8.552.018 17.105.014 25.657 0 .076-.033.152-.074.328h-.851c-4.859 0-9.717.001-14.575-.002-.323 0-.648-.009-.968-.048-2.677-.328-3.572-1.25-3.735-3.949a86.301 86.301 0 0 1-.163-5.009c-.018-6.772-.008-13.544-.008-20.316V6.146zM117.274 11.102c.118 3.393 1.278 6.228 3.561 8.597 2.244 2.329 5.08 3.576 8.294 4.407-.877 1.247-1.691 2.43-2.546 3.58-.085.115-.451.105-.646.038-3.136-1.083-6.223-2.283-9.082-3.99-1.418-.847-2.796-1.754-3.48-3.496-.814 1.942-2.379 2.996-4.048 3.793-2.764 1.322-5.616 2.461-8.447 3.64-.236.097-.731.015-.868-.164-.816-1.068-1.562-2.189-2.397-3.386 4.482-1.19 8.289-3.237 10.483-7.489.925-1.793 1.449-4.085 1.255-5.52h-9.45V7.176h26.913c0 1.19.025 2.37-.032 3.546-.007.138-.461.36-.71.362-2.59.027-5.181.017-7.771.017h-1.029zM169.477 25.495V6.14c2.038-.245 4.014-.243 5.835.765 1.397.774 1.657 2.185 1.739 3.617.054.936.01 1.878.01 2.87h4.554V6.153c2.054-.266 3.995-.232 5.821.678 1.174.586 1.636 1.685 1.764 2.915.086.825.061 1.663.062 2.495.005 4.073.002 8.146.002 12.22v1.023h-7.604v-7.971h-4.569v7.982h-7.614zM155.856 17.815v4.426c3.882-.005 7.725.186 11.601-.924 0 1.059.036 2.096-.034 3.125-.012.178-.458.44-.726.472-2.112.242-4.225.53-6.346.624-2.338.102-4.685.026-7.028-.002a9.012 9.012 0 0 1-1.763-.205c-2.403-.514-3.429-1.906-3.442-4.637-.009-2.023-.002-4.045-.002-6.067V6.651h18.213v3.87h-10.45v3.26h10.472v4.034h-10.495zM66.343 24.307c.438-.045 1.195-.074 1.934-.207 1.608-.288 3.141-.784 4.368-1.937 1.317-1.237 1.389-2.809.099-4.033a7.126 7.126 0 0 0-1.998-1.33c-2.311-1.015-4.735-1.18-7.203-.703-1.58.305-3.08.807-4.25 1.984-1.258 1.265-1.264 2.732-.005 3.985.34.338.735.64 1.15.882 1.724 1.003 3.623 1.32 5.905 1.359zm.694 2.899c-4.94-.15-8.751-.602-12.244-2.457a10.506 10.506 0 0 1-2.29-1.629c-2.076-1.97-1.985-4.42.172-6.298 1.99-1.732 4.393-2.594 6.917-3.125 5.493-1.154 10.931-1.009 16.203 1.057 1.255.491 2.468 1.233 3.512 2.089 2.25 1.842 2.29 4.25.228 6.276-1.834 1.803-4.16 2.692-6.6 3.201-2.283.476-4.618.7-5.898.886zM181.637 31.996h-31.678v-4h1.027c10.276 0 20.551-.007 30.826.008 1.343.002 2.702 0 4.023.202 2.159.33 3.305 1.606 3.375 3.792.093 2.881.039 5.768.043 8.652.001.102-.045.203-.08.35h-7.536V31.996zM85.614 6.137c1.811-.25 3.548-.175 5.22.465 1.86.712 2.284 2.32 2.329 4.066.052 2.072.012 4.146.012 6.314h4.502v3.996H93.2v10.887h-7.587V6.137zM102.801 29.806h7.542v6.703h30.175v3.929c-.327.02-.665.055-1.002.055-9.689.003-19.378.01-29.066-.007-1.422-.002-2.864.013-4.26-.21-2.144-.342-3.204-1.41-3.353-3.541-.16-2.275-.036-4.57-.036-6.93zM139.814 31.884h-7.549V6.14c1.91-.256 3.773-.205 5.54.607 1.46.67 1.874 2.006 1.997 3.458.063.749.012 1.508.012 2.263V31.884zM55.946 29.818h7.583v6.71h29.158v3.967h-1.053c-9.387 0-18.774.009-28.161-.009-1.421-.002-2.864.006-4.257-.228-2.105-.353-3.16-1.58-3.25-3.717-.092-2.205-.02-4.417-.02-6.723z" fill="#fff"/>
    <path fill-rule="evenodd" clip-rule="evenodd" d="M51.767 8.786h10.435V6.213h7.572v2.528c.376.017.66.042.944.043 2.94.002 5.883.02 8.824-.012.642-.007.849.184.818.824-.05 1.018-.013 2.04-.013 3.12h-28.58v-3.93z" fill="#fff"/>
</svg>
