<svg width="30" height="30" viewBox="0 0 30 30" fill="none" xmlns="http://www.w3.org/2000/svg">
    <path d="M15 30c8.284 0 15-6.716 15-15 0-8.284-6.716-15-15-15C6.716 0 0 6.716 0 15c0 8.284 6.716 15 15 15z" fill="#C7CFE0"/>
    <path d="m19.777 25.213-.203-1.746s0-.162-.244-.243l-.121-2.72s.975-1.178 1.3-4.02c0 0 .338.223.49-.721.152-.944.73-2.772-.093-2.558 0 0 .518-4.142-.243-5.817-.76-1.672-2.885-3.435-5.68-3.441-2.794.006-4.918 1.769-5.68 3.44-.76 1.676-.243 5.818-.243 5.818-.822-.214-.243 1.614-.092 2.558.153.944.49.72.49.72.324 2.843 1.3 4.02 1.3 4.02l-.122 2.721c-.244.081-.244.243-.244.243l-.202 1.746s-1.977.86-4.176 1.813A14.935 14.935 0 0 0 14.98 30c3.364 0 6.468-1.106 8.968-2.974l-4.172-1.813z" fill="#fff"/>
</svg>
