<svg width="40" height="40" fill="none" xmlns="http://www.w3.org/2000/svg">
    <path d="M16.184 8.333 13.25 5.4l-2.934 2.934h-4.15v4.15l-2.933 2.934 2.934 2.934V22.5h4.149l2.934 2.934 2.934-2.934h4.15v-4.15l2.933-2.933-2.934-2.934v-4.15h-4.149z" fill="#FF9800"/>
    <path fill-rule="evenodd" clip-rule="evenodd" d="M13.25 20.833a5.417 5.417 0 1 0 0-10.833 5.417 5.417 0 0 0 0 10.833z" fill="#FFEB3B"/>
    <path d="M32.305 22.544a7.5 7.5 0 0 0-14.018-4.806A5.833 5.833 0 0 0 9.084 22.5v.016a5.833 5.833 0 1 0-.422 11.652h22.922a5.833 5.833 0 0 0 .722-11.623z" fill="#BBDEFB"/>
</svg>
